<?xml version="1.0" standalone="no"?>
<!DOCTYPE svg PUBLIC "-//W3C//DTD SVG 20010904//EN"
 "http://www.w3.org/TR/2001/REC-SVG-20010904/DTD/svg10.dtd">
<svg version="1.0" xmlns="http://www.w3.org/2000/svg"
 width="512.000000pt" height="512.000000pt" viewBox="0 0 512.000000 512.000000"
 preserveAspectRatio="xMidYMid meet">
<metadata>
Created by potrace 1.14, written by Peter Selinger 2001-2017
</metadata>
<g transform="translate(0.000000,512.000000) scale(0.100000,-0.100000)"
fill="#000000" stroke="none">
<path d="M1808 4929 c-32 -18 -21 -65 36 -152 88 -135 101 -170 97 -267 -2
-57 -3 -65 -16 -142 -12 -76 -39 -58 -41 27 -2 78 -13 132 -41 194 -14 31 -28
58 -32 61 -3 3 -19 21 -35 40 -48 58 -140 126 -228 168 -164 78 -248 87 -248
26 0 -37 44 -74 136 -112 205 -87 298 -174 317 -298 l5 -32 -93 44 c-198 94
-420 122 -624 79 -278 -58 -500 -279 -566 -561 -20 -85 -12 -248 15 -319 56
-148 150 -228 357 -306 49 -19 90 -41 99 -53 15 -24 29 -126 17 -127 -133 -11
-213 -88 -213 -202 0 -50 24 -110 56 -139 28 -25 105 -55 137 -54 27 2 27 1
28 -64 1 -36 2 -85 3 -110 1 -42 -1 -45 -29 -50 -160 -34 -222 -207 -117 -327
26 -31 99 -63 145 -63 20 0 37 -3 37 -7 0 -5 5 -37 11 -73 5 -36 11 -74 13
-85 2 -11 6 -34 10 -51 6 -28 4 -33 -27 -52 -60 -35 -107 -116 -107 -185 0
-124 121 -237 240 -225 32 3 36 0 78 -72 24 -41 48 -76 53 -78 5 -2 9 -9 9
-17 0 -7 6 -18 14 -24 12 -11 10 -19 -15 -55 -39 -55 -49 -136 -25 -200 33
-86 129 -149 218 -141 43 3 118 32 118 46 0 4 7 10 16 13 10 4 41 -12 83 -42
36 -27 91 -63 122 -82 51 -30 56 -36 50 -59 -18 -62 1 -130 51 -186 86 -99
239 -100 326 -1 17 20 32 43 32 51 0 18 7 18 100 1 81 -15 104 -19 222 -37 43
-6 75 -15 73 -20 -11 -17 18 -98 48 -134 97 -118 288 -102 357 30 30 58 16 56
200 26 166 -28 157 -25 155 -69 -2 -42 20 -106 51 -144 54 -69 167 -95 250
-59 27 12 61 33 75 47 l26 25 54 -22 c228 -92 439 -88 586 12 127 87 206 268
198 453 -13 271 -214 522 -556 691 -104 52 -474 162 -674 201 -11 2 -60 13
-110 24 -49 11 -144 31 -210 46 -600 130 -853 271 -941 523 -43 123 -52 248
-47 626 11 760 9 869 -21 1025 -15 82 -54 193 -82 235 -16 25 -16 29 4 88 49
142 54 365 11 470 -28 69 -97 158 -157 204 -47 35 -57 38 -84 22z"/>
</g>
</svg>
